<svg xmlns="http://www.w3.org/2000/svg" width="18" height="18" viewBox="0 0 18 18">
  <defs>
    <style>
      .cls-1 {
        fill: #bebebe;
        fill-rule: evenodd;
      }
    </style>
  </defs>
  <path class="cls-1" d="M1815,42a9,9,0,0,0-1.46,17.881,0.126,0.126,0,0,0,.04.035l0.02-.026A9.11,9.11,0,0,0,1815,60,9,9,0,1,0,1815,42Zm0.68,6.043a19.552,19.552,0,0,0,2.6-.212,9.756,9.756,0,0,1,.45,2.487h-3.05V48.044Zm0-1.361V43.613a9.866,9.866,0,0,1,2.09,2.914A18.151,18.151,0,0,1,1815.68,46.682Zm-1.36-3.046v3.027a18.293,18.293,0,0,1-2.07-.211A9.737,9.737,0,0,1,1814.32,43.636Zm0,4.391v2.291h-3.1a9.826,9.826,0,0,1,.5-2.572A19.8,19.8,0,0,0,1814.32,48.027Zm-4.46,2.291h-2.55a7.634,7.634,0,0,1,1.19-3.491,12.1,12.1,0,0,0,1.87.628A11.128,11.128,0,0,0,1809.86,50.319Zm0,1.361a12.7,12.7,0,0,0,.64,3.014,13.656,13.656,0,0,0-1.92.6,7.66,7.66,0,0,1-1.27-3.619h2.55Zm1.37,0h3.09v2.5a20.352,20.352,0,0,0-2.48.244A11.357,11.357,0,0,1,1811.23,51.68Zm3.09,3.863v3.149h-0.01a13.243,13.243,0,0,1-1.94-2.97A19.315,19.315,0,0,1,1814.32,55.543Zm1.36-.011a18.772,18.772,0,0,1,1.89.139,13.37,13.37,0,0,1-1.89,2.906V55.532Zm0-1.361V51.68h3.03a11.308,11.308,0,0,1-.6,2.69A19.543,19.543,0,0,0,1815.68,54.171Zm4.4-2.491h2.61a7.653,7.653,0,0,1-1.27,3.614,10.187,10.187,0,0,0-1.97-.666A12.534,12.534,0,0,0,1820.08,51.68Zm0.02-1.361a11.857,11.857,0,0,0-.46-2.751,9.953,9.953,0,0,0,1.91-.657,7.668,7.668,0,0,1,1.14,3.408h-2.59Zm0.61-4.522a10.219,10.219,0,0,1-1.54.479,11.532,11.532,0,0,0-1.52-2.531A7.752,7.752,0,0,1,1820.71,45.8Zm-8.36-2.054a11.719,11.719,0,0,0-1.49,2.428,13.446,13.446,0,0,1-1.49-.458A7.764,7.764,0,0,1,1812.35,43.743Zm-2.86,12.669a14,14,0,0,1,1.51-.436,14.285,14.285,0,0,0,1.23,2.235A7.769,7.769,0,0,1,1809.49,56.412Zm8.15,1.849a15.07,15.07,0,0,0,1.31-2.349,10.309,10.309,0,0,1,1.58.478A7.721,7.721,0,0,1,1817.64,58.261Z" transform="translate(-1806 -42)"/>
</svg>
