<svg xmlns="http://www.w3.org/2000/svg" width="21" height="25" viewBox="0 0 21 25">
  <defs>
    <style>
      .cls-1 {
        fill: #b43680;
        fill-rule: evenodd;
      }
    </style>
  </defs>
  <path class="cls-1" d="M1036,3007.1l-0.13-.12a10.6,10.6,0,0,0-14.74,0l-0.14.13a10.476,10.476,0,0,0,.01,14.67l7.08,7.05a0.6,0.6,0,0,0,.84,0l7.09-7.06A10.476,10.476,0,0,0,1036,3007.1Zm-1.67,1.43,0.12,0.11a8.282,8.282,0,0,1,0,11.6l-5.53,5.5a0.6,0.6,0,0,1-.84,0l-5.53-5.49a8.291,8.291,0,0,1,0-11.6l0.12-.12A8.381,8.381,0,0,1,1034.33,3008.53Zm-0.86,4.51-0.71-.71a0.6,0.6,0,0,0-.84,0l-3.59,3.57a0.585,0.585,0,0,1-.83,0l-1.92-1.91a0.6,0.6,0,0,0-.84,0l-0.71.71a0.585,0.585,0,0,0,0,.83l3.47,3.46a0.6,0.6,0,0,0,.83,0l5.14-5.12A0.585,0.585,0,0,0,1033.47,3013.04Z" transform="translate(-1018 -3004)"/>
</svg>
